<svg id="Ebene_1" width="195" height="50" data-name="Ebene 1" xmlns="http://www.w3.org/2000/svg" viewBox="0 0 704.6 220"><defs><style>.cls-1,.cls-3{fill:#fff;}.cls-1,.cls-2,.cls-3{stroke:#fff;stroke-miterlimit:10;}.cls-2{fill:#ffc501;}.cls-3{stroke-width:10px;}</style></defs><title>logo</title><path class="cls-1" d="M562.15,662.34l11.43,7.55c-6.43,8.16-16.42,13.26-28.36,13.26-21.11,0-36.31-16.11-36.31-37s15.2-36.93,36.31-36.93c11.94,0,21.93,5,28.36,13.26L562.15,630a21.2,21.2,0,0,0-16.93-7.65c-14.79,0-22.44,11.93-22.44,23.77S530.43,670,545.22,670A21.2,21.2,0,0,0,562.15,662.34Z" transform="translate(-253.5 -540.5)"/><path class="cls-1" d="M626.11,650.61v31.22h-13v-5.51c-2.45,4-8.16,6.83-15.1,6.83-7.75,0-18.36-4.18-18.36-15.2,0-17,21-17,27.85-17h5.61c-.1-7.45-2.75-10.71-10.71-10.71-4.69,0-8.87,2.45-10.81,3.77l-8.88-6.73a31.15,31.15,0,0,1,21.53-8.36C620.7,628.89,626.11,638.27,626.11,650.61Zm-13,8.47h-.81c-9.29,0-19.39-.1-19.39,7.65,0,3.88,2.55,7,9,7,6.63,0,10.1-3.78,11.22-5.92Z" transform="translate(-253.5 -540.5)"/><path class="cls-1" d="M685.27,630.11v51.72h-13V675.5c-2.85,4.29-7.45,7.65-15,7.65-13.06,0-19-10.61-19-21.52V630.11h13v28.77c0,6.63,2.75,11.62,10,11.62,7.76,0,11-5.61,11-11.62V630.11Z" transform="translate(-253.5 -540.5)"/><path class="cls-1" d="M737.08,665.91c0,10.21-7.45,17.24-21.93,17.24-9.9,0-19.89-4-22.24-12.65l12.45-3.87c.4,2.14,2.44,5.61,10,5.61,5.41,0,8.47-1.94,8.47-5.41,0-4.89-7.45-4.69-13.57-6-10-2-15.09-6.83-15.09-15.7,0-9.8,8.16-16.22,20.3-16.22,8.87,0,17.64,4.38,19.78,13.36l-11.73,2.86c-.61-2.66-3.16-5.31-8-5.31-3.78,0-7.66,1.43-7.66,5.31,0,4.59,6.94,4.89,11,5.81C731.47,653.67,737.08,657.14,737.08,665.91Z" transform="translate(-253.5 -540.5)"/><path class="cls-1" d="M790.12,650.61v31.22h-13v-5.51c-2.44,4-8.16,6.83-15.09,6.83-7.76,0-18.36-4.18-18.36-15.2,0-17,21-17,27.84-17h5.61c-.1-7.45-2.75-10.71-10.71-10.71-4.69,0-8.87,2.45-10.81,3.77l-8.87-6.73a31.1,31.1,0,0,1,21.52-8.36C784.71,628.89,790.12,638.27,790.12,650.61Zm-13,8.47h-.81c-9.28,0-19.38-.1-19.38,7.65,0,3.88,2.55,7,9,7,6.63,0,10.1-3.78,11.22-5.92Z" transform="translate(-253.5 -540.5)"/><path class="cls-1" d="M815.31,610.42v71.41H802.36V610.42Z" transform="translate(-253.5 -540.5)"/><path class="cls-2" d="M903,610.42v71.41H889.16V634.5l-21.32,34.58h-4.59L841.83,634.5v47.33H828.06V610.42h14.69l22.75,36.73,22.74-36.73Z" transform="translate(-253.5 -540.5)"/><path class="cls-2" d="M957.6,669v12.86H916.29V610.42h13.77V669Z" transform="translate(-253.5 -540.5)"/><circle class="cls-1" cx="96.5" cy="25.5" r="25"/><circle class="cls-1" cx="25.5" cy="110.5" r="25"/><circle class="cls-2" cx="167.5" cy="111.5" r="25"/><circle class="cls-1" cx="94.5" cy="194.5" r="25"/><line class="cls-3" x1="74.5" y1="50.5" x2="46.5" y2="84.5"/><line class="cls-3" x1="133.5" y1="111.5" x2="59.5" y2="111.5"/><line class="cls-3" x1="118.5" y1="51.5" x2="146.5" y2="85.5"/><line class="cls-3" x1="72.5" y1="170.5" x2="44.5" y2="136.5"/></svg>