<?xml version="1.0" encoding="utf-8"?>
<!-- Generator: Adobe Illustrator 19.2.1, SVG Export Plug-In . SVG Version: 6.00 Build 0)  -->
<svg version="1.1" id="layer" xmlns="http://www.w3.org/2000/svg" xmlns:xlink="http://www.w3.org/1999/xlink" x="0px" y="0px"
	 viewBox="0 0 652 652" style="enable-background:new 0 0 652 652;" xml:space="preserve">
<style type="text/css">
	.st0{fill:#45BAEB;}
</style>
<path class="st0" d="M123.6,381.7c-0.2,0.7-0.8,1-2,1H99.3c-1.3,0-2.5-0.6-3.5-1.8L59,334.1l-10.3,9.8v36.3c0,1.7-0.8,2.5-2.5,2.5
	H28.9c-1.7,0-2.5-0.8-2.5-2.5V214.6c0-1.7,0.8-2.5,2.5-2.5h17.3c1.7,0,2.5,0.8,2.5,2.5v101.9L92.8,272c1.2-1.2,2.3-1.8,3.5-1.8h23
	c1,0,1.7,0.4,2,1.2c0.3,1,0.3,1.8-0.2,2.3l-46.6,45.1l48.6,60.4C123.7,379.8,123.9,380.7,123.6,381.7 M213.9,382.7
	c1.7,0,2.5-0.8,2.5-2.5v-69.4c0-16.2-5.5-28-16.5-35.3c-7.5-5-16.6-7.5-27.3-7.5c-13.9,0-27.2,4.4-40.1,13.3
	c-1.3,1.3-1.6,2.5-0.8,3.5l9,12.8c0.7,1.2,1.8,1.3,3.3,0.5c9.7-6.7,19.2-10,28.5-10c7.2,0,12.7,2.2,16.4,6.5
	c3.8,4.3,5.4,9.6,4.9,15.8c-16.2,1.7-28.3,3.7-36.3,6c-20.4,5.8-30.6,16.9-30.6,33.3c0,10.3,3.8,18.9,11.3,25.5
	c7.7,6.5,16.8,9.8,27.3,9.8c11.5,0,21-2.8,28.3-8.3v3.5c0,1.7,0.9,2.5,2.8,2.5H213.9 M193.8,355.4c-7,7-16.4,10.1-28,9.3
	c-4.2-0.3-7.9-1.6-11-3.9c-3.2-2.3-5-5.2-5.5-8.9c-0.8-6.5,2.8-11.5,11-15c6-2.7,17.2-4.8,33.6-6.5V355.4z M318.7,426.1
	c9.1-9.4,13.7-23.2,13.7-41.4V272.7c0-1.7-0.8-2.5-2.5-2.5h-17.3c-1.7,0-2.5,0.8-2.5,2.5v5c-8.5-6.5-19-9.8-31.6-9.8
	c-16.5,0-29.3,6.4-38.3,19.3c-7.7,10.7-11.5,23.7-11.5,39.1c0,16.2,4,29.6,12,40.3c9.2,12.2,21.9,18.3,38.1,18.3
	c13,0,23.5-3.3,31.3-9.8v13c0,21-10.1,31.6-30.3,31.6c-8.8,0-17.9-4.7-27.3-14c-0.5-0.5-1.1-0.7-1.8-0.7c-0.8,0-1.5,0.2-2,0.7
	L237,417.5c-1,1.5-0.9,2.8,0.3,3.8c3.3,2.8,6.3,5.2,8.8,7.1c2.5,1.9,4.7,3.5,6.5,4.6c8.7,4.8,17.9,7.3,27.5,7.3
	C296.7,440.3,309.6,435.5,318.7,426.1 M310.1,347.1c-4.2,10.7-14.1,16-29.8,16c-7.7,0-13.9-2.4-18.8-7.3c-6.5-6.2-9.8-16-9.8-29.6
	c0-24.4,9.8-36.6,29.3-36.6c15.2,0,24.9,5.3,29,16V347.1z M436.5,426.1c9.1-9.4,13.6-23.2,13.6-41.4V272.7c0-1.7-0.8-2.5-2.5-2.5
	h-17.3c-1.7,0-2.5,0.8-2.5,2.5v5c-8.5-6.5-19-9.8-31.6-9.8c-16.5,0-29.3,6.4-38.3,19.3c-7.7,10.7-11.5,23.7-11.5,39.1
	c0,16.2,4,29.6,12,40.3c9.2,12.2,21.9,18.3,38.1,18.3c13,0,23.5-3.3,31.3-9.8v13c0,21-10.1,31.6-30.3,31.6c-8.9,0-17.9-4.7-27.3-14
	c-0.5-0.5-1.1-0.7-1.8-0.7c-0.8,0-1.5,0.2-2,0.7l-11.8,11.8c-1,1.5-0.9,2.8,0.3,3.8c3.3,2.8,6.3,5.2,8.8,7.1
	c2.5,1.9,4.7,3.5,6.5,4.6c8.7,4.8,17.9,7.3,27.6,7.3C414.5,440.3,427.4,435.5,436.5,426.1 M427.8,347.1c-4.2,10.7-14.1,16-29.8,16
	c-7.7,0-13.9-2.4-18.8-7.3c-6.5-6.2-9.8-16-9.8-29.6c0-24.4,9.8-36.6,29.3-36.6c15.2,0,24.9,5.3,29,16V347.1z M488.5,382.7
	c1.7,0,2.5-0.8,2.5-2.5V214.6c0-1.7-0.8-2.5-2.5-2.5h-17.3c-1.7,0-2.5,0.8-2.5,2.5v165.5c0,1.7,0.8,2.5,2.5,2.5H488.5 M614.7,326.3
	c0.8-16.9-4.1-30.9-14.8-42.1c-10.4-10.9-23.1-16.3-38.3-16.3c-16,0-29,5.2-39.1,15.5c-10.9,11.4-16.3,25.2-16.3,41.6
	c0,17.4,5.5,31.6,16.5,42.8c11.4,11.4,25.5,17,42.6,17c15.9,0,29.8-4.5,41.8-13.5c1.3-1,1.3-2.2,0-3.5l-11.8-12c-1-1-2.2-1-3.8,0
	c-7.3,5.2-15.6,7.8-24.8,7.8c-10.4,0-18.9-2.9-25.8-8.8c-6-5.5-9.5-12.4-10.5-20.5H612c1.7,0,2.5-0.8,2.5-2.5L614.7,326.3z
	 M581.7,295c6,5.2,9.1,11.6,9.3,19.3h-60.4c1.5-8,5.1-14.5,10.8-19.5c5.7-5,12.3-7.5,19.8-7.5C569.2,287.2,576,289.8,581.7,295
	 M609,270.6h2.8v7.5h1.6v-7.5h2.8v-1.3H609V270.6z M617.2,278.1h1.5v-6.8h0l2.5,6.8h1.3l2.5-6.8h0v6.8h1.5v-8.9h-2.2l-2.4,6.9h0
	l-2.4-6.9h-2.2V278.1z"/>
</svg>
