<?xml version="1.0" encoding="utf-8"?>
<!-- Generator: Adobe Illustrator 23.0.3, SVG Export Plug-In . SVG Version: 6.00 Build 0)  -->
<svg version="1.1" id="Ebene_1" xmlns="http://www.w3.org/2000/svg" xmlns:xlink="http://www.w3.org/1999/xlink" x="0px" y="0px"
	 viewBox="0 0 40 30" style="enable-background:new 0 0 40 30;" xml:space="preserve">
<style type="text/css">
	.st0{fill:#AFC3D3;}
	.st1{fill:#FFFFFF;}
	.st2{fill:none;stroke:#FFFFFF;}
</style>
<path class="st0" d="M20,0L20,0c4.1,0,7.5,1.7,7.5,3.8v22.5c0,2.1-3.4,3.8-7.5,3.8l0,0c-4.1,0-7.5-1.7-7.5-3.8V3.8
	C12.5,1.7,15.9,0,20,0z"/>
<path class="st0" d="M8.8,7.5h22.5c2.1,0,3.8,3.4,3.8,7.5l0,0c0,4.1-1.7,7.5-3.8,7.5H8.8C6.7,22.5,5,19.1,5,15l0,0
	C5,10.9,6.7,7.5,8.8,7.5z"/>
<circle class="st1" cx="15.9" cy="3.8" r="1.4"/>
<circle class="st1" cx="24.1" cy="26.3" r="1.4"/>
<line class="st2" x1="12.5" y1="7" x2="20" y2="7"/>
<line class="st2" x1="20" y1="23" x2="27.5" y2="23"/>
<path class="st2" d="M12,22.5c0-7.5,1.9-7.5,7.6-7.5c6.5,0,8.4,0,8.4-7.5"/>
</svg>
