<?xml version="1.0" encoding="utf-8"?>
<!-- Generator: Adobe Illustrator 23.0.3, SVG Export Plug-In . SVG Version: 6.00 Build 0)  -->
<svg version="1.1" id="Ebene_1" xmlns="http://www.w3.org/2000/svg" xmlns:xlink="http://www.w3.org/1999/xlink" x="0px" y="0px"
	 viewBox="0 0 44.9 30" style="enable-background:new 0 0 44.9 30;" xml:space="preserve">
<style type="text/css">
	.st0{fill-rule:evenodd;clip-rule:evenodd;fill:#AFC3D3;}
</style>
<title>r</title>
<path class="st0" d="M23.8,26.1c-10.7,0-19.5-5.8-19.5-13S13.1,0,23.8,0s19.5,5.8,19.5,13S34.6,26.1,23.8,26.1z M26.8,5.1
	C18.6,5.1,12,9.1,12,14s6.6,8.9,14.8,8.9S41,20.2,41,14S35,5.1,26.8,5.1z"/>
<path class="st0" d="M34,20.2c0,0,1.2,0.4,1.9,0.7c0.2,0.1,0.6,0.4,0.9,0.7c0.2,0.2,0.3,0.4,0.4,0.6l4.6,7.8l-7.5,0l-3.5-6.6
	c0,0-0.7-1.2-1.2-1.6c-0.4-0.3-0.5-0.4-0.9-0.4H27V30h-6.6V8.1h13.3c0,0,6.1,0.1,6.1,5.9S34,20.2,34,20.2z M31.1,12.8l-4,0v3.7h4
	c0,0,1.9,0,1.9-1.9C33,12.7,31.1,12.8,31.1,12.8L31.1,12.8z"/>
</svg>
